P3
3 2
15
0
15
0
5
5
5
0
0
0
0
15
0
5
5
5
0
0
0
